<?xml version="1.0" encoding="UTF-8" standalone="no"?>
<svg
   width="32"
   height="32"
   version="1.1"
   viewBox="0 0 32 32"
   id="svg24"
   sodipodi:docname="bottom_side.svg"
   inkscape:version="1.4.4 (dcaf3e7d9e, 2026-05-05)"
   xmlns:inkscape="http://www.inkscape.org/namespaces/inkscape"
   xmlns:sodipodi="http://sodipodi.sourceforge.net/DTD/sodipodi-0.dtd"
   xmlns="http://www.w3.org/2000/svg"
   xmlns:svg="http://www.w3.org/2000/svg"
   xmlns:rdf="http://www.w3.org/1999/02/22-rdf-syntax-ns#"
   xmlns:cc="http://creativecommons.org/ns#"
   xmlns:dc="http://purl.org/dc/elements/1.1/">
  <metadata
     id="metadata28">
    <rdf:RDF>
      <cc:Work
         rdf:about="">
        <dc:format>image/svg+xml</dc:format>
        <dc:type
           rdf:resource="http://purl.org/dc/dcmitype/StillImage" />
        <dc:title />
      </cc:Work>
    </rdf:RDF>
  </metadata>
  <sodipodi:namedview
     pagecolor="#c8c8c8"
     bordercolor="#666666"
     borderopacity="1"
     objecttolerance="10"
     gridtolerance="10"
     guidetolerance="10"
     inkscape:pageopacity="0"
     inkscape:pageshadow="2"
     inkscape:window-width="2560"
     inkscape:window-height="1384"
     id="namedview26"
     showgrid="true"
     inkscape:zoom="45.254834"
     inkscape:cx="12.274932"
     inkscape:cy="10.672893"
     inkscape:window-x="0"
     inkscape:window-y="0"
     inkscape:window-maximized="1"
     inkscape:current-layer="svg24"
     inkscape:document-rotation="0"
     inkscape:showpageshadow="0"
     inkscape:pagecheckerboard="0"
     inkscape:deskcolor="#505050">
    <inkscape:grid
       type="xygrid"
       id="grid892"
       originx="0"
       originy="0"
       spacingy="1"
       spacingx="1"
       units="px" />
  </sodipodi:namedview>
  <defs
     id="defs8">
    <filter
       id="b"
       x="-0.000165"
       y="-0.0007425"
       width="1.00033"
       height="1.001485"
       color-interpolation-filters="sRGB">
      <feGaussianBlur
         stdDeviation="0.0012375"
         id="feGaussianBlur2" />
    </filter>
    <filter
       id="a"
       x="-.15902"
       y="-.1571"
       width="1.318"
       height="1.3142"
       color-interpolation-filters="sRGB">
      <feGaussianBlur
         stdDeviation="0.93032228"
         id="feGaussianBlur5" />
    </filter>
    <filter
       inkscape:collect="always"
       style="color-interpolation-filters:sRGB"
       id="filter918"
       x="-0.32398796"
       width="1.6479759"
       y="-0.10800129"
       height="1.2160026">
      <feGaussianBlur
         inkscape:collect="always"
         stdDeviation="0.81006351"
         id="feGaussianBlur920" />
    </filter>
    <filter
       inkscape:collect="always"
       style="color-interpolation-filters:sRGB"
       id="filter900"
       x="-0.12342858"
       width="1.2468572"
       y="-0.43200002"
       height="1.864">
      <feGaussianBlur
         inkscape:collect="always"
         stdDeviation="0.72"
         id="feGaussianBlur902" />
    </filter>
  </defs>
  <rect
     style="opacity:0.3;fill:#151515;fill-opacity:1;filter:url(#filter900)"
     id="rect898"
     width="14"
     height="4"
     x="9.000001"
     y="26.271999"
     ry="2" />
  <g
     id="g916"
     transform="translate(24.000107,-8.0117436)"
     style="opacity:0.3;fill:#151515;fill-opacity:1;filter:url(#filter918)">
    <path
       id="path904"
       style="fill:#151515;fill-opacity:1;stroke-width:1.5"
       d="m -11.000107,17.999836 c 0,1.6569 1.3431595,3 2.9999995,3 1.656839,0 3,-1.343159 3,-3 0,-1.656839 -1.343162,-2.999999 -3,-2.999999 -1.656841,0 -2.9999995,1.34316 -2.9999995,2.999999 z" />
    <path
       id="path906"
       style="fill:#151515;fill-opacity:1"
       d="m -10.000107,17.999836 c 0,1.1046 0.8954395,2 1.9999995,2 1.104559,0 2,-0.89544 2,-2 0,-1.104559 -0.895441,-1.999999 -2,-1.999999 -1.104561,0 -1.9999995,0.89544 -1.9999995,1.999999 z" />
    <path
       style="color:#000000;font-style:normal;font-variant:normal;font-weight:normal;font-stretch:normal;font-size:medium;line-height:normal;font-family:sans-serif;font-variant-ligatures:normal;font-variant-position:normal;font-variant-caps:normal;font-variant-numeric:normal;font-variant-alternates:normal;font-variant-east-asian:normal;font-feature-settings:normal;font-variation-settings:normal;text-indent:0;text-align:start;text-decoration:none;text-decoration-line:none;text-decoration-style:solid;text-decoration-color:#000000;letter-spacing:normal;word-spacing:normal;text-transform:none;writing-mode:lr-tb;direction:ltr;text-orientation:mixed;dominant-baseline:auto;baseline-shift:baseline;text-anchor:start;white-space:normal;shape-padding:0;shape-margin:0;inline-size:0;clip-rule:nonzero;display:inline;overflow:visible;visibility:visible;isolation:auto;mix-blend-mode:normal;color-interpolation:sRGB;color-interpolation-filters:linearRGB;solid-color:#000000;solid-opacity:1;vector-effect:none;fill:#151515;fill-opacity:1;fill-rule:nonzero;stroke:none;stroke-linecap:butt;stroke-linejoin:round;stroke-miterlimit:4;stroke-dasharray:none;stroke-dashoffset:0;stroke-opacity:1;color-rendering:auto;image-rendering:auto;shape-rendering:auto;text-rendering:auto;enable-background:accumulate;stop-color:#000000"
       d="m -11.000107,23.02718 a 1.0001,1.0001 0 0 0 0.02344,0.189453 l 1.9999995,9 a 1.0001,1.0001 0 0 0 1.953124,0 l 2,-9 a 1.0001,1.0001 0 0 0 -0.976564,-1.216797 h -3.9999995 a 1.0001,1.0001 0 0 0 -1,1.027344 z m 2.2460935,0.972656 h 1.507812 l -0.753906,3.388672 z"
       id="path908" />
    <path
       style="color:#000000;font-style:normal;font-variant:normal;font-weight:normal;font-stretch:normal;font-size:medium;line-height:normal;font-family:sans-serif;font-variant-ligatures:normal;font-variant-position:normal;font-variant-caps:normal;font-variant-numeric:normal;font-variant-alternates:normal;font-variant-east-asian:normal;font-feature-settings:normal;font-variation-settings:normal;text-indent:0;text-align:start;text-decoration:none;text-decoration-line:none;text-decoration-style:solid;text-decoration-color:#000000;letter-spacing:normal;word-spacing:normal;text-transform:none;writing-mode:lr-tb;direction:ltr;text-orientation:mixed;dominant-baseline:auto;baseline-shift:baseline;text-anchor:start;white-space:normal;shape-padding:0;shape-margin:0;inline-size:0;clip-rule:nonzero;display:inline;overflow:visible;visibility:visible;isolation:auto;mix-blend-mode:normal;color-interpolation:sRGB;color-interpolation-filters:linearRGB;solid-color:#000000;solid-opacity:1;vector-effect:none;fill:#151515;fill-opacity:1;fill-rule:nonzero;stroke:none;stroke-width:2;stroke-linecap:butt;stroke-linejoin:round;stroke-miterlimit:4;stroke-dasharray:none;stroke-dashoffset:0;stroke-opacity:1;color-rendering:auto;image-rendering:auto;shape-rendering:auto;text-rendering:auto;enable-background:accumulate;stop-color:#000000"
       d="m -10.000107,22.999836 1.9999995,9 2,-9 z"
       id="path910" />
  </g>
  <g
     id="g902"
     transform="translate(24.000107,-8.999836)">
    <path
       id="path882"
       style="fill:#fefefe;fill-opacity:1;stroke-width:1.5"
       d="m -11.000107,17.999836 c 0,1.6569 1.3431595,3 2.9999995,3 1.656839,0 3,-1.343159 3,-3 0,-1.656839 -1.343162,-2.999999 -3,-2.999999 -1.656841,0 -2.9999995,1.34316 -2.9999995,2.999999 z" />
    <path
       id="path881"
       style="fill:#646464;fill-opacity:1"
       d="m -10.000107,17.999836 c 0,1.1046 0.8954395,2 1.9999995,2 1.104559,0 2,-0.89544 2,-2 0,-1.104559 -0.895441,-1.999999 -2,-1.999999 -1.104561,0 -1.9999995,0.89544 -1.9999995,1.999999 z" />
    <path
       style="color:#000000;font-style:normal;font-variant:normal;font-weight:normal;font-stretch:normal;font-size:medium;line-height:normal;font-family:sans-serif;font-variant-ligatures:normal;font-variant-position:normal;font-variant-caps:normal;font-variant-numeric:normal;font-variant-alternates:normal;font-variant-east-asian:normal;font-feature-settings:normal;font-variation-settings:normal;text-indent:0;text-align:start;text-decoration:none;text-decoration-line:none;text-decoration-style:solid;text-decoration-color:#000000;letter-spacing:normal;word-spacing:normal;text-transform:none;writing-mode:lr-tb;direction:ltr;text-orientation:mixed;dominant-baseline:auto;baseline-shift:baseline;text-anchor:start;white-space:normal;shape-padding:0;shape-margin:0;inline-size:0;clip-rule:nonzero;display:inline;overflow:visible;visibility:visible;isolation:auto;mix-blend-mode:normal;color-interpolation:sRGB;color-interpolation-filters:linearRGB;solid-color:#000000;solid-opacity:1;vector-effect:none;fill:#fefefe;fill-opacity:1;fill-rule:nonzero;stroke:none;stroke-linecap:butt;stroke-linejoin:round;stroke-miterlimit:4;stroke-dasharray:none;stroke-dashoffset:0;stroke-opacity:1;color-rendering:auto;image-rendering:auto;shape-rendering:auto;text-rendering:auto;enable-background:accumulate;stop-color:#000000"
       d="m -11.000107,23.02718 a 1.0001,1.0001 0 0 0 0.02344,0.189453 l 1.9999995,9 a 1.0001,1.0001 0 0 0 1.953124,0 l 2,-9 a 1.0001,1.0001 0 0 0 -0.976564,-1.216797 h -3.9999995 a 1.0001,1.0001 0 0 0 -1,1.027344 z m 2.2460935,0.972656 h 1.507812 l -0.753906,3.388672 z"
       id="path892" />
    <path
       style="color:#000000;font-style:normal;font-variant:normal;font-weight:normal;font-stretch:normal;font-size:medium;line-height:normal;font-family:sans-serif;font-variant-ligatures:normal;font-variant-position:normal;font-variant-caps:normal;font-variant-numeric:normal;font-variant-alternates:normal;font-variant-east-asian:normal;font-feature-settings:normal;font-variation-settings:normal;text-indent:0;text-align:start;text-decoration:none;text-decoration-line:none;text-decoration-style:solid;text-decoration-color:#000000;letter-spacing:normal;word-spacing:normal;text-transform:none;writing-mode:lr-tb;direction:ltr;text-orientation:mixed;dominant-baseline:auto;baseline-shift:baseline;text-anchor:start;white-space:normal;shape-padding:0;shape-margin:0;inline-size:0;clip-rule:nonzero;display:inline;overflow:visible;visibility:visible;isolation:auto;mix-blend-mode:normal;color-interpolation:sRGB;color-interpolation-filters:linearRGB;solid-color:#000000;solid-opacity:1;vector-effect:none;fill:#151515;fill-opacity:1;fill-rule:nonzero;stroke:none;stroke-width:2;stroke-linecap:butt;stroke-linejoin:round;stroke-miterlimit:4;stroke-dasharray:none;stroke-dashoffset:0;stroke-opacity:1;color-rendering:auto;image-rendering:auto;shape-rendering:auto;text-rendering:auto;enable-background:accumulate;stop-color:#000000"
       d="m -10.000107,22.999836 1.9999995,9 2,-9 z"
       id="path890" />
  </g>
  <rect
     style="opacity:1;fill:#fefefe"
     id="rect894"
     width="14"
     height="4"
     x="9"
     y="25"
     ry="2" />
  <rect
     style="opacity:1;fill:#151515;stroke-width:0.654654;fill-opacity:1"
     id="rect896"
     width="12"
     height="2"
     x="10"
     y="26"
     ry="1" />
  <path
     style="fill:#ffb900;stroke-width:0.00739458"
     d="m 16.01155,6.9973389 c -0.207055,-0.00292 -0.414431,0.023713 -0.611483,0.088562 -0.532043,0.1644685 -0.985368,0.561736 -1.218835,1.0672203 -0.119722,0.2596848 -0.18846,0.5446509 -0.184238,0.8314101 -0.01539,0.595899 0.268224,1.1848417 0.726415,1.5622597 0.451414,0.377172 1.074877,0.538359 1.652165,0.422861 0.588151,-0.106558 1.114584,-0.496182 1.39341,-1.0242211 0.280178,-0.5170034 0.313698,-1.1584871 0.08985,-1.702154 -0.23499,-0.5790819 -0.753892,-1.0355262 -1.361399,-1.1865081 -0.158652,-0.040529 -0.321913,-0.063309 -0.48588,-0.05943 z"
     id="path1" />
  <path
     style="fill:#ff0000;stroke-width:0.0078125"
     d="m 15.824219,10.995319 c -0.251108,-0.02313 -0.497836,-0.09433 -0.726563,-0.20967 C 14.713515,10.591933 14.403486,10.280456 14.209924,9.8937727 14.0668,9.6078503 14,9.3234428 14,9 c 0,-0.5495943 0.209679,-1.0471317 0.602658,-1.430018 0.318556,-0.3103747 0.70867,-0.5004629 1.138216,-0.5546107 0.13739,-0.017319 0.474154,-0.012864 0.587251,0.00777 0.207142,0.03779 0.368091,0.090305 0.551885,0.1800726 0.550872,0.2690516 0.957628,0.7905507 1.08029,1.3850294 0.05379,0.2606753 0.05217,0.585751 -0.0042,0.8408113 -0.08105,0.3668461 -0.255578,0.6902924 -0.518303,0.9605654 -0.30012,0.308742 -0.665449,0.505008 -1.078114,0.579198 -0.186381,0.03351 -0.363968,0.0423 -0.535478,0.0265 z"
     id="path2" />
  <path
     style="fill:#ed1515;stroke-width:0.00390625"
     d="m 15.90625,11.003302 c -0.157986,-0.01071 -0.265403,-0.02669 -0.390887,-0.05812 C 15.084655,10.83727 14.71223,10.598011 14.434525,10.250812 14.231159,9.9965546 14.087172,9.683921 14.02936,9.3710938 13.98589,9.1358971 13.98595,8.8561797 14.029519,8.6269531 c 0.0372,-0.1957401 0.111256,-0.4047166 0.2049,-0.5782066 0.197202,-0.3653469 0.510496,-0.6661995 0.884722,-0.8495888 0.172491,-0.084529 0.359779,-0.145285 0.541015,-0.1755033 0.116752,-0.019467 0.174165,-0.023421 0.341797,-0.023542 0.182173,-1.313e-4 0.245547,0.00513 0.378906,0.031439 0.354258,0.069895 0.660158,0.2194519 0.933594,0.4564434 0.06015,0.052137 0.177178,0.171038 0.225189,0.2288024 0.258379,0.3108681 0.410038,0.6678654 0.454688,1.0703125 0.0085,0.076352 0.01175,0.2663004 0.006,0.3457031 -0.01554,0.2134354 -0.05981,0.4108895 -0.13575,0.6054688 -0.0246,0.063034 -0.09415,0.2060409 -0.131872,0.2711524 -0.08397,0.144934 -0.188793,0.280674 -0.312668,0.404881 -0.350318,0.351256 -0.805953,0.556454 -1.304773,0.587613 -0.05721,0.0036 -0.166006,0.0043 -0.208984,0.0014 z"
     id="path3" />
</svg>
