<?xml version="1.0" encoding="UTF-8" standalone="no"?>
<svg
   width="32"
   height="32"
   viewBox="0 0 32 32.000001"
   id="svg2"
   version="1.1"
   inkscape:version="1.4.4 (dcaf3e7d9e, 2026-05-05)"
   sodipodi:docname="wait-05.svg"
   xmlns:inkscape="http://www.inkscape.org/namespaces/inkscape"
   xmlns:sodipodi="http://sodipodi.sourceforge.net/DTD/sodipodi-0.dtd"
   xmlns="http://www.w3.org/2000/svg"
   xmlns:svg="http://www.w3.org/2000/svg"
   xmlns:rdf="http://www.w3.org/1999/02/22-rdf-syntax-ns#"
   xmlns:cc="http://creativecommons.org/ns#"
   xmlns:dc="http://purl.org/dc/elements/1.1/">
  <defs
     id="defs4">
    <linearGradient
       gradientUnits="userSpaceOnUse"
       gradientTransform="matrix(1.0283134,0,0,0.98361153,343.32301,796.71719)"
       x1="17.871185"
       y1="7.6685314"
       x2="17.871185"
       y2="17.89324"
       id="linearGradient-colour1">
      <stop
         stop-color="#FBB114"
         offset="0%"
         id="stop7" />
      <stop
         stop-color="#FF9508"
         offset="100%"
         id="stop9" />
    </linearGradient>
    <linearGradient
       gradientUnits="userSpaceOnUse"
       gradientTransform="matrix(0.94465199,0,0,1.0707233,343.32301,796.71719)"
       x1="23.954397"
       y1="8.6098804"
       x2="23.954397"
       y2="19.256279"
       id="linearGradient-colour2">
      <stop
         stop-color="#FF645D"
         offset="0%"
         id="stop12" />
      <stop
         stop-color="#FF4332"
         offset="100%"
         id="stop14" />
    </linearGradient>
    <linearGradient
       gradientUnits="userSpaceOnUse"
       gradientTransform="matrix(1.1037078,0,0,0.91642091,343.32301,796.71719)"
       x1="20.12693"
       y1="19.205147"
       x2="20.12693"
       y2="29.033293"
       id="linearGradient-colour3">
      <stop
         stop-color="#CA70E1"
         offset="0%"
         id="stop17" />
      <stop
         stop-color="#B452CB"
         offset="100%"
         id="stop19" />
    </linearGradient>
    <linearGradient
       gradientUnits="userSpaceOnUse"
       gradientTransform="matrix(1.0283134,0,0,0.98361158,343.32301,796.71719)"
       x1="16.359619"
       y1="17.89324"
       x2="16.359619"
       y2="28.117949"
       id="linearGradient-colour4">
      <stop
         stop-color="#14ADF6"
         offset="0%"
         id="stop22" />
      <stop
         stop-color="#1191F4"
         offset="100%"
         id="stop24" />
    </linearGradient>
    <linearGradient
       gradientUnits="userSpaceOnUse"
       gradientTransform="matrix(0.94465199,0,0,1.0707233,343.32301,796.71719)"
       x1="13.307998"
       y1="13.618688"
       x2="13.307998"
       y2="24.265087"
       id="linearGradient-colour5">
      <stop
         stop-color="#52CF30"
         offset="0%"
         id="stop27" />
      <stop
         stop-color="#3BBD1C"
         offset="100%"
         id="stop29" />
    </linearGradient>
    <linearGradient
       gradientUnits="userSpaceOnUse"
       gradientTransform="matrix(1.1037078,0,0,0.91642092,343.32301,796.71719)"
       x1="11.765563"
       y1="9.3769989"
       x2="11.765563"
       y2="19.205147"
       id="linearGradient-colour6">
      <stop
         stop-color="#FFD305"
         offset="0%"
         id="stop32" />
      <stop
         stop-color="#FDCF01"
         offset="100%"
         id="stop34" />
    </linearGradient>
  </defs>
  <sodipodi:namedview
     id="base"
     pagecolor="#dcdcdc"
     bordercolor="#666666"
     borderopacity="1.0"
     inkscape:pageopacity="0"
     inkscape:pageshadow="2"
     inkscape:zoom="15.839192"
     inkscape:cx="-21.812982"
     inkscape:cy="5.3664354"
     inkscape:document-units="px"
     inkscape:current-layer="layer1"
     showgrid="false"
     units="px"
     inkscape:document-rotation="0"
     inkscape:window-width="2560"
     inkscape:window-height="1384"
     inkscape:window-x="0"
     inkscape:window-y="0"
     inkscape:window-maximized="1"
     inkscape:showpageshadow="0"
     inkscape:pagecheckerboard="0"
     inkscape:deskcolor="#505050" />
  <metadata
     id="metadata7">
    <rdf:RDF>
      <cc:Work
         rdf:about="">
        <dc:format>image/svg+xml</dc:format>
        <dc:type
           rdf:resource="http://purl.org/dc/dcmitype/StillImage" />
        <dc:title />
      </cc:Work>
    </rdf:RDF>
  </metadata>
  <g
     inkscape:label="Layer 1"
     inkscape:groupmode="layer"
     id="layer1"
     transform="translate(0,-1020.3622)">
    <g
       id="g1885"
       transform="matrix(0.33828257,0,0,0.33828257,-12.422677,677.70102)"
       style="fill:#646464;fill-opacity:1">
      <path
         id="path1875"
         style="opacity:1;fill:#646464;fill-opacity:1;stroke-width:2.98558"
         d="m 56.827754,1030.3884 12.999981,-8.5 13.000017,8.5 -13.000017,8.5 z"
         sodipodi:nodetypes="ccccc" />
      <g
         id="g1881"
         transform="translate(24.571723)"
         style="fill:#646464;fill-opacity:1">
        <rect
           style="fill:#646464;fill-opacity:1;stroke-width:3.1048"
           id="rect1877"
           width="13"
           height="13"
           x="32.256031"
           y="1030.3884" />
        <rect
           style="fill:#646464;fill-opacity:1;stroke-width:3.1048"
           id="rect1879"
           width="13"
           height="13"
           x="45.256031"
           y="1030.3884" />
      </g>
      <path
         id="path1883"
         style="opacity:1;fill:#646464;fill-opacity:1;stroke-width:2.98558"
         d="m 56.827754,1043.3884 12.999981,8.5 13.000017,-8.5 -13.000017,-8.5 z"
         sodipodi:nodetypes="ccccc" />
    </g>
    <g
       id="g1897"
       transform="matrix(0.33828257,0,0,0.33828257,-2.82035,677.70102)"
       style="fill:#787878;fill-opacity:1">
      <path
         id="path1887"
         style="opacity:1;fill:#787878;fill-opacity:1;stroke-width:2.98558"
         d="m 56.827754,1030.3884 12.999981,-8.5 13.000017,8.5 -13.000017,8.5 z"
         sodipodi:nodetypes="ccccc" />
      <g
         id="g1893"
         transform="translate(24.571723)"
         style="fill:#787878;fill-opacity:1">
        <rect
           style="fill:#787878;fill-opacity:1;stroke-width:3.1048"
           id="rect1889"
           width="13"
           height="13"
           x="32.256031"
           y="1030.3884" />
        <rect
           style="fill:#787878;fill-opacity:1;stroke-width:3.1048"
           id="rect1891"
           width="13"
           height="13"
           x="45.256031"
           y="1030.3884" />
      </g>
      <path
         id="path1895"
         style="opacity:1;fill:#787878;fill-opacity:1;stroke-width:2.98558"
         d="m 56.827754,1043.3884 12.999981,8.5 13.000017,-8.5 -13.000017,-8.5 z"
         sodipodi:nodetypes="ccccc" />
    </g>
    <g
       id="g1933"
       transform="matrix(0.33828257,0,0,0.33828257,1.980814,685.60092)"
       style="fill:#8c8c8c;fill-opacity:1">
      <path
         id="path1923"
         style="opacity:1;fill:#8c8c8c;fill-opacity:1;stroke-width:2.98558"
         d="m 56.827754,1030.3884 12.999981,-8.5 13.000017,8.5 -13.000017,8.5 z"
         sodipodi:nodetypes="ccccc" />
      <g
         id="g1929"
         transform="translate(24.571723)"
         style="fill:#8c8c8c;fill-opacity:1">
        <rect
           style="fill:#8c8c8c;fill-opacity:1;stroke-width:3.1048"
           id="rect1925"
           width="13"
           height="13"
           x="32.256031"
           y="1030.3884" />
        <rect
           style="fill:#8c8c8c;fill-opacity:1;stroke-width:3.1048"
           id="rect1927"
           width="13"
           height="13"
           x="45.256031"
           y="1030.3884" />
      </g>
      <path
         id="path1931"
         style="opacity:1;fill:#8c8c8c;fill-opacity:1;stroke-width:2.98558"
         d="m 56.827754,1043.3884 12.999981,8.5 13.000017,-8.5 -13.000017,-8.5 z"
         sodipodi:nodetypes="ccccc" />
    </g>
    <path
       style="fill:#ed1515;stroke-width:0.0111607"
       d="m 9.0011161,11.730598 -2.1875,-1.431606 -0.00282,-2.1907295 c -0.00192,-1.4937026 8.473e-4,-2.195146 0.0087,-2.2046106 0.013469,-0.016229 4.3646559,-2.8624193 4.3783489,-2.8639571 0.01128,-0.00127 4.366901,2.8455174 4.382575,2.8644033 0.0074,0.00887 0.01019,0.7572324 0.0083,2.2039295 l -0.0028,2.1904944 -2.191241,1.43277 c -1.205183,0.788024 -2.19458,1.432352 -2.198661,1.431841 -0.0041,-5.11e-4 -0.991795,-0.645152 -2.1949199,-1.432535 z"
       id="path1"
       transform="translate(0,1020.3622)" />
    <path
       style="fill:#ed1515;stroke-width:0.0111607"
       d="m 18.602018,11.72845 -2.195824,-1.435662 0.0028,-2.1943853 0.0028,-2.1943848 2.1875,-1.4312321 c 1.203125,-0.7871776 2.195543,-1.4300347 2.205372,-1.4285714 0.0098,0.00146 1.000483,0.6452097 2.201451,1.4305475 l 2.183579,1.4278871 -6.75e-4,2.1993451 -6.75e-4,2.1993449 -2.187079,1.428572 c -1.202893,0.785714 -2.190765,1.429838 -2.19527,1.431386 -0.0045,0.0015 -0.996312,-0.643233 -2.204015,-1.432847 z"
       id="path2"
       transform="translate(0,1020.3622)" />
    <path
       style="fill:#ed1515;stroke-width:0.00789182"
       d="M 23.403183,19.631535 21.209258,18.196543 V 16.000042 13.80354 l 2.193925,-1.434617 c 1.206658,-0.78904 2.19628,-1.434661 2.19916,-1.434714 0.0063,-1.17e-4 4.360958,2.845855 4.380656,2.862978 0.01312,0.0114 0.01372,0.124096 0.01184,2.20668 l -0.002,2.194662 -2.193563,1.434338 c -1.20646,0.788886 -2.195502,1.434185 -2.197871,1.433999 -0.0024,-1.88e-4 -0.991575,-0.646086 -2.198233,-1.435331 z"
       id="path3"
       transform="translate(0,1020.3622)" />
  </g>
</svg>
