<?xml version="1.0" encoding="UTF-8" standalone="no"?>
<svg
   width="32"
   height="32"
   viewBox="0 0 32 32.000001"
   id="svg2"
   version="1.1"
   inkscape:version="1.4.4 (dcaf3e7d9e, 2026-05-05)"
   sodipodi:docname="wait-04.svg"
   xmlns:inkscape="http://www.inkscape.org/namespaces/inkscape"
   xmlns:sodipodi="http://sodipodi.sourceforge.net/DTD/sodipodi-0.dtd"
   xmlns="http://www.w3.org/2000/svg"
   xmlns:svg="http://www.w3.org/2000/svg"
   xmlns:rdf="http://www.w3.org/1999/02/22-rdf-syntax-ns#"
   xmlns:cc="http://creativecommons.org/ns#"
   xmlns:dc="http://purl.org/dc/elements/1.1/">
  <defs
     id="defs4">
    <linearGradient
       gradientUnits="userSpaceOnUse"
       gradientTransform="matrix(1.0283134,0,0,0.98361153,343.32301,796.71719)"
       x1="17.871185"
       y1="7.6685314"
       x2="17.871185"
       y2="17.89324"
       id="linearGradient-colour1">
      <stop
         stop-color="#FBB114"
         offset="0%"
         id="stop7" />
      <stop
         stop-color="#FF9508"
         offset="100%"
         id="stop9" />
    </linearGradient>
    <linearGradient
       gradientUnits="userSpaceOnUse"
       gradientTransform="matrix(0.94465199,0,0,1.0707233,343.32301,796.71719)"
       x1="23.954397"
       y1="8.6098804"
       x2="23.954397"
       y2="19.256279"
       id="linearGradient-colour2">
      <stop
         stop-color="#FF645D"
         offset="0%"
         id="stop12" />
      <stop
         stop-color="#FF4332"
         offset="100%"
         id="stop14" />
    </linearGradient>
    <linearGradient
       gradientUnits="userSpaceOnUse"
       gradientTransform="matrix(1.1037078,0,0,0.91642091,343.32301,796.71719)"
       x1="20.12693"
       y1="19.205147"
       x2="20.12693"
       y2="29.033293"
       id="linearGradient-colour3">
      <stop
         stop-color="#CA70E1"
         offset="0%"
         id="stop17" />
      <stop
         stop-color="#B452CB"
         offset="100%"
         id="stop19" />
    </linearGradient>
    <linearGradient
       gradientUnits="userSpaceOnUse"
       gradientTransform="matrix(1.0283134,0,0,0.98361158,343.32301,796.71719)"
       x1="16.359619"
       y1="17.89324"
       x2="16.359619"
       y2="28.117949"
       id="linearGradient-colour4">
      <stop
         stop-color="#14ADF6"
         offset="0%"
         id="stop22" />
      <stop
         stop-color="#1191F4"
         offset="100%"
         id="stop24" />
    </linearGradient>
    <linearGradient
       gradientUnits="userSpaceOnUse"
       gradientTransform="matrix(0.94465199,0,0,1.0707233,343.32301,796.71719)"
       x1="13.307998"
       y1="13.618688"
       x2="13.307998"
       y2="24.265087"
       id="linearGradient-colour5">
      <stop
         stop-color="#52CF30"
         offset="0%"
         id="stop27" />
      <stop
         stop-color="#3BBD1C"
         offset="100%"
         id="stop29" />
    </linearGradient>
    <linearGradient
       gradientUnits="userSpaceOnUse"
       gradientTransform="matrix(1.1037078,0,0,0.91642092,343.32301,796.71719)"
       x1="11.765563"
       y1="9.3769989"
       x2="11.765563"
       y2="19.205147"
       id="linearGradient-colour6">
      <stop
         stop-color="#FFD305"
         offset="0%"
         id="stop32" />
      <stop
         stop-color="#FDCF01"
         offset="100%"
         id="stop34" />
    </linearGradient>
  </defs>
  <sodipodi:namedview
     id="base"
     pagecolor="#dcdcdc"
     bordercolor="#666666"
     borderopacity="1.0"
     inkscape:pageopacity="0"
     inkscape:pageshadow="2"
     inkscape:zoom="44.8"
     inkscape:cx="19.296875"
     inkscape:cy="14.575893"
     inkscape:document-units="px"
     inkscape:current-layer="layer1"
     showgrid="false"
     units="px"
     inkscape:document-rotation="0"
     inkscape:window-width="2560"
     inkscape:window-height="1384"
     inkscape:window-x="0"
     inkscape:window-y="0"
     inkscape:window-maximized="1"
     inkscape:showpageshadow="0"
     inkscape:pagecheckerboard="0"
     inkscape:deskcolor="#505050" />
  <metadata
     id="metadata7">
    <rdf:RDF>
      <cc:Work
         rdf:about="">
        <dc:format>image/svg+xml</dc:format>
        <dc:type
           rdf:resource="http://purl.org/dc/dcmitype/StillImage" />
        <dc:title />
      </cc:Work>
    </rdf:RDF>
  </metadata>
  <g
     inkscape:label="Layer 1"
     inkscape:groupmode="layer"
     id="layer1"
     transform="translate(0,-1020.3622)">
    <g
       id="g1885"
       transform="matrix(0.33828257,0,0,0.33828257,-12.422677,677.70102)"
       style="fill:#646464;fill-opacity:1">
      <path
         id="path1875"
         style="opacity:1;fill:#646464;fill-opacity:1;stroke-width:2.98558"
         d="m 56.827754,1030.3884 12.999981,-8.5 13.000017,8.5 -13.000017,8.5 z"
         sodipodi:nodetypes="ccccc" />
      <g
         id="g1881"
         transform="translate(24.571723)"
         style="fill:#646464;fill-opacity:1">
        <rect
           style="fill:#646464;fill-opacity:1;stroke-width:3.1048"
           id="rect1877"
           width="13"
           height="13"
           x="32.256031"
           y="1030.3884" />
        <rect
           style="fill:#646464;fill-opacity:1;stroke-width:3.1048"
           id="rect1879"
           width="13"
           height="13"
           x="45.256031"
           y="1030.3884" />
      </g>
      <path
         id="path1883"
         style="opacity:1;fill:#646464;fill-opacity:1;stroke-width:2.98558"
         d="m 56.827754,1043.3884 12.999981,8.5 13.000017,-8.5 -13.000017,-8.5 z"
         sodipodi:nodetypes="ccccc" />
    </g>
    <g
       id="g1897"
       transform="matrix(0.33828257,0,0,0.33828257,-2.82035,677.70102)"
       style="fill:#787878;fill-opacity:1">
      <path
         id="path1887"
         style="opacity:1;fill:#787878;fill-opacity:1;stroke-width:2.98558"
         d="m 56.827754,1030.3884 12.999981,-8.5 13.000017,8.5 -13.000017,8.5 z"
         sodipodi:nodetypes="ccccc" />
      <g
         id="g1893"
         transform="translate(24.571723)"
         style="fill:#787878;fill-opacity:1">
        <rect
           style="fill:#787878;fill-opacity:1;stroke-width:3.1048"
           id="rect1889"
           width="13"
           height="13"
           x="32.256031"
           y="1030.3884" />
        <rect
           style="fill:#787878;fill-opacity:1;stroke-width:3.1048"
           id="rect1891"
           width="13"
           height="13"
           x="45.256031"
           y="1030.3884" />
      </g>
      <path
         id="path1895"
         style="opacity:1;fill:#787878;fill-opacity:1;stroke-width:2.98558"
         d="m 56.827754,1043.3884 12.999981,8.5 13.000017,-8.5 -13.000017,-8.5 z"
         sodipodi:nodetypes="ccccc" />
    </g>
    <g
       id="g1969"
       transform="matrix(0.2,0,0,0.2,11.636775,828.98451)"
       style="fill:#8c8c8c;fill-opacity:1">
      <path
         id="path1959"
         style="opacity:1;fill:#8c8c8c;fill-opacity:1;stroke-width:2.98558"
         d="m 56.827754,1030.3884 12.999981,-8.5 13.000017,8.5 -13.000017,8.5 z"
         sodipodi:nodetypes="ccccc" />
      <g
         id="g1965"
         transform="translate(24.571723)"
         style="fill:#8c8c8c;fill-opacity:1">
        <rect
           style="fill:#8c8c8c;fill-opacity:1;stroke-width:3.1048"
           id="rect1961"
           width="13"
           height="13"
           x="32.256031"
           y="1030.3884" />
        <rect
           style="fill:#8c8c8c;fill-opacity:1;stroke-width:3.1048"
           id="rect1963"
           width="13"
           height="13"
           x="45.256031"
           y="1030.3884" />
      </g>
      <path
         id="path1967"
         style="opacity:1;fill:#8c8c8c;fill-opacity:1;stroke-width:2.98558"
         d="m 56.827754,1043.3884 12.999981,8.5 13.000017,-8.5 -13.000017,-8.5 z"
         sodipodi:nodetypes="ccccc" />
    </g>
    <path
       style="fill:#ed1515;stroke-width:0.0157836"
       d="M 8.9930942,11.722824 6.8034839,10.290929 6.8070609,8.098642 6.8106378,5.906355 9.0028107,4.4730814 C 11.151231,3.0684137 11.195806,3.0402581 11.236195,3.0623737 11.258861,3.074785 12.246916,3.7195 13.431872,4.4950736 l 2.154466,1.4101339 0.0039,2.1928607 0.0039,2.1928608 -2.184881,1.428419 c -1.201685,0.78563 -2.194251,1.429983 -2.205702,1.431895 -0.01145,0.0019 -1.006145,-0.640876 -2.2104308,-1.428419 z"
       id="path1"
       transform="translate(0,1020.3622)" />
    <path
       style="fill:#ed1515;stroke-width:0.0157836"
       d="m 18.597066,11.724399 -2.182087,-1.429219 4.1e-4,-2.1960505 4.09e-4,-2.1960506 2.193284,-1.4331229 2.193285,-1.433123 2.166534,1.4156737 c 1.191595,0.7786205 2.178965,1.4264024 2.194157,1.4395151 0.02606,0.022493 0.02762,0.147688 0.02762,2.2129177 v 2.1890765 l -2.178696,1.424552 c -1.198282,0.783504 -2.190876,1.426914 -2.205763,1.429801 -0.01545,0.003 -0.963506,-0.608098 -2.209154,-1.42397 z"
       id="path2"
       transform="translate(0,1020.3622)" />
    <path
       style="fill:#ed1515;stroke-width:0.00558036"
       d="m 24.299665,18.145079 -1.294643,-0.847141 -0.0014,-1.297064 -0.0014,-1.297064 1.296049,-0.847434 c 0.712828,-0.466088 1.299183,-0.847687 1.303012,-0.847998 0.0038,-3.11e-4 0.589421,0.379875 1.301315,0.844859 l 1.294353,0.845424 3.03e-4,1.300451 3.04e-4,1.300452 -1.292524,0.845196 c -0.710889,0.464857 -1.296617,0.845705 -1.301619,0.846328 -0.005,6.23e-4 -0.591683,-0.380081 -1.303737,-0.846009 z"
       id="path3"
       transform="translate(0,1020.3622)" />
  </g>
</svg>
