<?xml version="1.0" encoding="UTF-8" standalone="no"?>
<svg
   width="32"
   height="32"
   viewBox="0 0 32 32.000001"
   id="svg2"
   version="1.1"
   inkscape:version="1.4.4 (dcaf3e7d9e, 2026-05-05)"
   sodipodi:docname="wait-13.svg"
   xmlns:inkscape="http://www.inkscape.org/namespaces/inkscape"
   xmlns:sodipodi="http://sodipodi.sourceforge.net/DTD/sodipodi-0.dtd"
   xmlns="http://www.w3.org/2000/svg"
   xmlns:svg="http://www.w3.org/2000/svg"
   xmlns:rdf="http://www.w3.org/1999/02/22-rdf-syntax-ns#"
   xmlns:cc="http://creativecommons.org/ns#"
   xmlns:dc="http://purl.org/dc/elements/1.1/">
  <defs
     id="defs4">
    <linearGradient
       gradientUnits="userSpaceOnUse"
       gradientTransform="matrix(1.0283134,0,0,0.98361153,343.32301,796.71719)"
       x1="17.871185"
       y1="7.6685314"
       x2="17.871185"
       y2="17.89324"
       id="linearGradient-colour1">
      <stop
         stop-color="#FBB114"
         offset="0%"
         id="stop7" />
      <stop
         stop-color="#FF9508"
         offset="100%"
         id="stop9" />
    </linearGradient>
    <linearGradient
       gradientUnits="userSpaceOnUse"
       gradientTransform="matrix(0.94465199,0,0,1.0707233,343.32301,796.71719)"
       x1="23.954397"
       y1="8.6098804"
       x2="23.954397"
       y2="19.256279"
       id="linearGradient-colour2">
      <stop
         stop-color="#FF645D"
         offset="0%"
         id="stop12" />
      <stop
         stop-color="#FF4332"
         offset="100%"
         id="stop14" />
    </linearGradient>
    <linearGradient
       gradientUnits="userSpaceOnUse"
       gradientTransform="matrix(1.1037078,0,0,0.91642091,343.32301,796.71719)"
       x1="20.12693"
       y1="19.205147"
       x2="20.12693"
       y2="29.033293"
       id="linearGradient-colour3">
      <stop
         stop-color="#CA70E1"
         offset="0%"
         id="stop17" />
      <stop
         stop-color="#B452CB"
         offset="100%"
         id="stop19" />
    </linearGradient>
    <linearGradient
       gradientUnits="userSpaceOnUse"
       gradientTransform="matrix(1.0283134,0,0,0.98361158,343.32301,796.71719)"
       x1="16.359619"
       y1="17.89324"
       x2="16.359619"
       y2="28.117949"
       id="linearGradient-colour4">
      <stop
         stop-color="#14ADF6"
         offset="0%"
         id="stop22" />
      <stop
         stop-color="#1191F4"
         offset="100%"
         id="stop24" />
    </linearGradient>
    <linearGradient
       gradientUnits="userSpaceOnUse"
       gradientTransform="matrix(0.94465199,0,0,1.0707233,343.32301,796.71719)"
       x1="13.307998"
       y1="13.618688"
       x2="13.307998"
       y2="24.265087"
       id="linearGradient-colour5">
      <stop
         stop-color="#52CF30"
         offset="0%"
         id="stop27" />
      <stop
         stop-color="#3BBD1C"
         offset="100%"
         id="stop29" />
    </linearGradient>
    <linearGradient
       gradientUnits="userSpaceOnUse"
       gradientTransform="matrix(1.1037078,0,0,0.91642092,343.32301,796.71719)"
       x1="11.765563"
       y1="9.3769989"
       x2="11.765563"
       y2="19.205147"
       id="linearGradient-colour6">
      <stop
         stop-color="#FFD305"
         offset="0%"
         id="stop32" />
      <stop
         stop-color="#FDCF01"
         offset="100%"
         id="stop34" />
    </linearGradient>
  </defs>
  <sodipodi:namedview
     id="base"
     pagecolor="#dcdcdc"
     bordercolor="#666666"
     borderopacity="1.0"
     inkscape:pageopacity="0"
     inkscape:pageshadow="2"
     inkscape:zoom="22.4"
     inkscape:cx="29.263393"
     inkscape:cy="20.758928"
     inkscape:document-units="px"
     inkscape:current-layer="layer1"
     showgrid="false"
     units="px"
     inkscape:document-rotation="0"
     inkscape:window-width="2560"
     inkscape:window-height="1384"
     inkscape:window-x="0"
     inkscape:window-y="0"
     inkscape:window-maximized="1"
     inkscape:showpageshadow="0"
     inkscape:pagecheckerboard="0"
     inkscape:deskcolor="#505050" />
  <metadata
     id="metadata7">
    <rdf:RDF>
      <cc:Work
         rdf:about="">
        <dc:format>image/svg+xml</dc:format>
        <dc:type
           rdf:resource="http://purl.org/dc/dcmitype/StillImage" />
        <dc:title />
      </cc:Work>
    </rdf:RDF>
  </metadata>
  <g
     inkscape:label="Layer 1"
     inkscape:groupmode="layer"
     id="layer1"
     transform="translate(0,-1020.3622)">
    <g
       id="g1897"
       transform="matrix(0.33828257,0,0,0.33828257,-2.82035,677.70102)"
       style="fill:#787878;fill-opacity:1">
      <path
         id="path1887"
         style="opacity:1;fill:#787878;fill-opacity:1;stroke-width:2.98558"
         d="m 56.827754,1030.3884 12.999981,-8.5 13.000017,8.5 -13.000017,8.5 z"
         sodipodi:nodetypes="ccccc" />
      <g
         id="g1893"
         transform="translate(24.571723)"
         style="fill:#787878;fill-opacity:1">
        <rect
           style="fill:#787878;fill-opacity:1;stroke-width:3.1048"
           id="rect1889"
           width="13"
           height="13"
           x="32.256031"
           y="1030.3884" />
        <rect
           style="fill:#787878;fill-opacity:1;stroke-width:3.1048"
           id="rect1891"
           width="13"
           height="13"
           x="45.256031"
           y="1030.3884" />
      </g>
      <path
         id="path1895"
         style="opacity:1;fill:#787878;fill-opacity:1;stroke-width:2.98558"
         d="m 56.827754,1043.3884 12.999981,8.5 13.000017,-8.5 -13.000017,-8.5 z"
         sodipodi:nodetypes="ccccc" />
    </g>
    <g
       id="g1921"
       transform="matrix(0.33828257,0,0,0.33828257,-17.223839,685.60092)"
       style="fill:#c8c8c8;fill-opacity:1">
      <path
         id="path1911"
         style="opacity:1;fill:#c8c8c8;fill-opacity:1;stroke-width:2.98558"
         d="m 56.827754,1030.3884 12.999981,-8.5 13.000017,8.5 -13.000017,8.5 z"
         sodipodi:nodetypes="ccccc" />
      <g
         id="g1917"
         transform="translate(24.571723)"
         style="fill:#c8c8c8;fill-opacity:1">
        <rect
           style="fill:#c8c8c8;fill-opacity:1;stroke-width:3.1048"
           id="rect1913"
           width="13"
           height="13"
           x="32.256031"
           y="1030.3884" />
        <rect
           style="fill:#c8c8c8;fill-opacity:1;stroke-width:3.1048"
           id="rect1915"
           width="13"
           height="13"
           x="45.256031"
           y="1030.3884" />
      </g>
      <path
         id="path1919"
         style="opacity:1;fill:#c8c8c8;fill-opacity:1;stroke-width:2.98558"
         d="m 56.827754,1043.3884 12.999981,8.5 13.000017,-8.5 -13.000017,-8.5 z"
         sodipodi:nodetypes="ccccc" />
    </g>
    <g
       id="g1933"
       transform="matrix(0.33828257,0,0,0.33828257,1.980814,685.60092)"
       style="fill:#8c8c8c;fill-opacity:1">
      <path
         id="path1923"
         style="opacity:1;fill:#8c8c8c;fill-opacity:1;stroke-width:2.98558"
         d="m 56.827754,1030.3884 12.999981,-8.5 13.000017,8.5 -13.000017,8.5 z"
         sodipodi:nodetypes="ccccc" />
      <g
         id="g1929"
         transform="translate(24.571723)"
         style="fill:#8c8c8c;fill-opacity:1">
        <rect
           style="fill:#8c8c8c;fill-opacity:1;stroke-width:3.1048"
           id="rect1925"
           width="13"
           height="13"
           x="32.256031"
           y="1030.3884" />
        <rect
           style="fill:#8c8c8c;fill-opacity:1;stroke-width:3.1048"
           id="rect1927"
           width="13"
           height="13"
           x="45.256031"
           y="1030.3884" />
      </g>
      <path
         id="path1931"
         style="opacity:1;fill:#8c8c8c;fill-opacity:1;stroke-width:2.98558"
         d="m 56.827754,1043.3884 12.999981,8.5 13.000017,-8.5 -13.000017,-8.5 z"
         sodipodi:nodetypes="ccccc" />
    </g>
    <g
       id="g1945"
       transform="matrix(0.33828257,0,0,0.33828257,-12.422677,693.50083)"
       style="fill:#b4b4b4;fill-opacity:1">
      <path
         id="path1935"
         style="opacity:1;fill:#b4b4b4;fill-opacity:1;stroke-width:2.98558"
         d="m 56.827754,1030.3884 12.999981,-8.5 13.000017,8.5 -13.000017,8.5 z"
         sodipodi:nodetypes="ccccc" />
      <g
         id="g1941"
         transform="translate(24.571723)"
         style="fill:#b4b4b4;fill-opacity:1">
        <rect
           style="fill:#b4b4b4;fill-opacity:1;stroke-width:3.1048"
           id="rect1937"
           width="13"
           height="13"
           x="32.256031"
           y="1030.3884" />
        <rect
           style="fill:#b4b4b4;fill-opacity:1;stroke-width:3.1048"
           id="rect1939"
           width="13"
           height="13"
           x="45.256031"
           y="1030.3884" />
      </g>
      <path
         id="path1943"
         style="opacity:1;fill:#b4b4b4;fill-opacity:1;stroke-width:2.98558"
         d="m 56.827754,1043.3884 12.999981,8.5 13.000017,-8.5 -13.000017,-8.5 z"
         sodipodi:nodetypes="ccccc" />
    </g>
    <g
       id="g1957"
       transform="matrix(0.33828257,0,0,0.33828257,-2.82035,693.50083)"
       style="fill:#a0a0a0;fill-opacity:1">
      <path
         id="path1947"
         style="opacity:1;fill:#a0a0a0;fill-opacity:1;stroke-width:2.98558"
         d="m 56.827754,1030.3884 12.999981,-8.5 13.000017,8.5 -13.000017,8.5 z"
         sodipodi:nodetypes="ccccc" />
      <g
         id="g1953"
         transform="translate(24.571723)"
         style="fill:#a0a0a0;fill-opacity:1">
        <rect
           style="fill:#a0a0a0;fill-opacity:1;stroke-width:3.1048"
           id="rect1949"
           width="13"
           height="13"
           x="32.256031"
           y="1030.3884" />
        <rect
           style="fill:#a0a0a0;fill-opacity:1;stroke-width:3.1048"
           id="rect1951"
           width="13"
           height="13"
           x="45.256031"
           y="1030.3884" />
      </g>
      <path
         id="path1955"
         style="opacity:1;fill:#a0a0a0;fill-opacity:1;stroke-width:2.98558"
         d="m 56.827754,1043.3884 12.999981,8.5 13.000017,-8.5 -13.000017,-8.5 z"
         sodipodi:nodetypes="ccccc" />
    </g>
    <path
       style="fill:#ed1515;stroke-width:0.0157836"
       d="m 18.597066,11.724399 -2.182087,-1.429219 4.1e-4,-2.1960505 4.09e-4,-2.1960506 2.193284,-1.4331229 2.193285,-1.433123 2.166534,1.4156737 c 1.191595,0.7786205 2.178965,1.4264024 2.194157,1.4395151 0.02606,0.022493 0.02762,0.147688 0.02762,2.2129177 v 2.1890765 l -2.178696,1.424552 c -1.198282,0.783504 -2.190876,1.426914 -2.205763,1.429801 -0.01545,0.003 -0.963506,-0.608098 -2.209154,-1.42397 z"
       id="path1"
       transform="translate(0,1020.3622)" />
    <path
       style="fill:#ed1515;stroke-width:0.0223214"
       d="m 23.404018,19.6241 -2.1875,-1.432847 -0.0057,-2.187516 -0.0057,-2.187515 2.182028,-1.427099 c 1.200116,-0.784904 2.197095,-1.427177 2.21551,-1.427274 0.01842,-9.7e-5 1.015395,0.641878 2.215511,1.426611 l 2.182028,1.426788 -0.0057,2.188327 -0.0057,2.188327 -2.1875,1.432716 c -1.203125,0.787994 -2.192522,1.43263 -2.198661,1.432523 -0.0061,-1.07e-4 -0.995535,-0.644975 -2.19866,-1.433041 z"
       id="path2"
       transform="translate(0,1020.3622)" />
    <path
       style="fill:#ed1515;stroke-width:0.0157836"
       d="m 18.597066,27.524521 -2.182087,-1.428851 2.07e-4,-2.196587 2.07e-4,-2.196587 2.193015,-1.433431 2.193016,-1.433431 2.167006,1.415982 c 1.191853,0.77879 2.179436,1.42671 2.194628,1.439823 0.02606,0.02249 0.02762,0.147703 0.02762,2.213231 v 2.18939 l -2.181288,1.426562 c -1.199708,0.784609 -2.192301,1.427954 -2.205763,1.429656 -0.01346,0.0017 -1.006414,-0.639888 -2.206562,-1.425757 z"
       id="path3"
       transform="translate(0,1020.3622)" />
    <path
       style="fill:#ed1515;stroke-width:0.0157836"
       d="m 9.0005944,27.52756 -2.1978934,-1.437214 0.00397,-2.192881 0.00397,-2.19288 2.1307905,-1.394426 C 10.113363,19.543225 11.101453,18.898074 11.137183,18.87649 l 0.06496,-0.03924 2.192095,1.43343 2.192095,1.43343 0.004,2.193119 0.004,2.19312 -1.882212,1.230516 c -1.035216,0.676784 -2.024264,1.32353 -2.197884,1.437214 l -0.315673,0.206698 z"
       id="path4"
       transform="translate(0,1020.3622)" />
    <path
       style="fill:#ed1515;stroke-width:0.0157836"
       d="M 4.1953614,19.629704 2.0062431,18.198529 2.0053823,16.002404 2.0045214,13.806279 4.1940691,12.374943 c 1.2042511,-0.787235 2.193954,-1.432585 2.1993396,-1.434111 0.00539,-0.0015 0.9981978,0.643278 2.2062492,1.432898 l 2.1964571,1.435672 -0.004,2.193223 -0.004,2.193224 -2.1927887,1.433705 C 7.3892904,20.418092 6.3984729,21.062723 6.3935075,21.062069 6.3885423,21.061414 5.3993764,20.41685 4.1953614,19.629704 Z"
       id="path5"
       transform="translate(0,1020.3622)" />
  </g>
</svg>
